<mxfile host="app.diagrams.net" modified="2020-11-02T03:14:57.410Z" agent="5.0 (Macintosh; Intel Mac OS X 10_15_3) AppleWebKit/537.36 (KHTML, like Gecko) Chrome/84.0.4147.125 Safari/537.36" etag="jFkqdckv5VG8Hw9Axg28" version="13.8.8" type="github">
  <diagram id="MMiAL6dLk4TMzHBbkS6z" name="第 1 页">
    <mxGraphModel dx="1188" dy="643" grid="1" gridSize="10" guides="1" tooltips="1" connect="1" arrows="1" fold="1" page="1" pageScale="1" pageWidth="1600" pageHeight="1200" math="0" shadow="0">
      <root>
        <mxCell id="0" />
        <mxCell id="1" parent="0" />
        <mxCell id="tFFXGWqwBPgf40RulYj3-35" value="" style="rounded=1;whiteSpace=wrap;html=1;dashed=1;fillColor=none;strokeColor=#FF0000;" vertex="1" parent="1">
          <mxGeometry x="555" y="158" width="490" height="390" as="geometry" />
        </mxCell>
        <mxCell id="tFFXGWqwBPgf40RulYj3-7" value="" style="group" vertex="1" connectable="0" parent="1">
          <mxGeometry x="250" y="180" width="170" height="350" as="geometry" />
        </mxCell>
        <mxCell id="tFFXGWqwBPgf40RulYj3-1" value="" style="rounded=1;whiteSpace=wrap;html=1;" vertex="1" parent="tFFXGWqwBPgf40RulYj3-7">
          <mxGeometry width="170" height="350" as="geometry" />
        </mxCell>
        <mxCell id="tFFXGWqwBPgf40RulYj3-2" value="&lt;font style=&quot;font-size: 20px&quot;&gt;Partition 1&lt;/font&gt;" style="rounded=0;whiteSpace=wrap;html=1;" vertex="1" parent="tFFXGWqwBPgf40RulYj3-7">
          <mxGeometry x="15" y="30" width="140" height="50" as="geometry" />
        </mxCell>
        <mxCell id="tFFXGWqwBPgf40RulYj3-3" value="&lt;font style=&quot;font-size: 20px&quot;&gt;Partition 2&lt;/font&gt;" style="rounded=0;whiteSpace=wrap;html=1;" vertex="1" parent="tFFXGWqwBPgf40RulYj3-7">
          <mxGeometry x="15" y="100" width="140" height="50" as="geometry" />
        </mxCell>
        <mxCell id="tFFXGWqwBPgf40RulYj3-4" value="&lt;font style=&quot;font-size: 20px&quot;&gt;Partition 3&lt;/font&gt;" style="rounded=0;whiteSpace=wrap;html=1;" vertex="1" parent="tFFXGWqwBPgf40RulYj3-7">
          <mxGeometry x="15" y="170" width="140" height="50" as="geometry" />
        </mxCell>
        <mxCell id="tFFXGWqwBPgf40RulYj3-5" value="&lt;font style=&quot;font-size: 20px&quot;&gt;Partition N&lt;/font&gt;" style="rounded=0;whiteSpace=wrap;html=1;" vertex="1" parent="tFFXGWqwBPgf40RulYj3-7">
          <mxGeometry x="15" y="280" width="140" height="50" as="geometry" />
        </mxCell>
        <mxCell id="tFFXGWqwBPgf40RulYj3-6" value="&lt;font style=&quot;font-size: 20px&quot;&gt;......&lt;/font&gt;" style="text;html=1;strokeColor=none;fillColor=none;align=center;verticalAlign=middle;whiteSpace=wrap;rounded=0;" vertex="1" parent="tFFXGWqwBPgf40RulYj3-7">
          <mxGeometry x="65" y="240" width="40" height="20" as="geometry" />
        </mxCell>
        <mxCell id="tFFXGWqwBPgf40RulYj3-9" value="" style="group" vertex="1" connectable="0" parent="1">
          <mxGeometry x="570" y="180" width="170" height="350" as="geometry" />
        </mxCell>
        <mxCell id="tFFXGWqwBPgf40RulYj3-10" value="" style="rounded=1;whiteSpace=wrap;html=1;" vertex="1" parent="tFFXGWqwBPgf40RulYj3-9">
          <mxGeometry width="170" height="350" as="geometry" />
        </mxCell>
        <mxCell id="tFFXGWqwBPgf40RulYj3-11" value="&lt;font style=&quot;font-size: 20px&quot;&gt;Jedis 1&lt;/font&gt;" style="rounded=0;whiteSpace=wrap;html=1;" vertex="1" parent="tFFXGWqwBPgf40RulYj3-9">
          <mxGeometry x="15" y="30" width="140" height="50" as="geometry" />
        </mxCell>
        <mxCell id="tFFXGWqwBPgf40RulYj3-12" value="&lt;font style=&quot;font-size: 20px&quot;&gt;Jedis&amp;nbsp;2&lt;/font&gt;" style="rounded=0;whiteSpace=wrap;html=1;" vertex="1" parent="tFFXGWqwBPgf40RulYj3-9">
          <mxGeometry x="15" y="100" width="140" height="50" as="geometry" />
        </mxCell>
        <mxCell id="tFFXGWqwBPgf40RulYj3-13" value="&lt;font style=&quot;font-size: 20px&quot;&gt;Jedis&amp;nbsp;3&lt;/font&gt;" style="rounded=0;whiteSpace=wrap;html=1;" vertex="1" parent="tFFXGWqwBPgf40RulYj3-9">
          <mxGeometry x="15" y="170" width="140" height="50" as="geometry" />
        </mxCell>
        <mxCell id="tFFXGWqwBPgf40RulYj3-14" value="&lt;font style=&quot;font-size: 20px&quot;&gt;Jedis&amp;nbsp;N&lt;/font&gt;" style="rounded=0;whiteSpace=wrap;html=1;" vertex="1" parent="tFFXGWqwBPgf40RulYj3-9">
          <mxGeometry x="15" y="280" width="140" height="50" as="geometry" />
        </mxCell>
        <mxCell id="tFFXGWqwBPgf40RulYj3-15" value="&lt;font style=&quot;font-size: 20px&quot;&gt;......&lt;/font&gt;" style="text;html=1;strokeColor=none;fillColor=none;align=center;verticalAlign=middle;whiteSpace=wrap;rounded=0;" vertex="1" parent="tFFXGWqwBPgf40RulYj3-9">
          <mxGeometry x="65" y="240" width="40" height="20" as="geometry" />
        </mxCell>
        <mxCell id="tFFXGWqwBPgf40RulYj3-16" value="" style="endArrow=classic;html=1;entryX=1;entryY=0.5;entryDx=0;entryDy=0;exitX=0;exitY=0.5;exitDx=0;exitDy=0;" edge="1" parent="1" source="tFFXGWqwBPgf40RulYj3-11" target="tFFXGWqwBPgf40RulYj3-2">
          <mxGeometry width="50" height="50" relative="1" as="geometry">
            <mxPoint x="470" y="570" as="sourcePoint" />
            <mxPoint x="520" y="520" as="targetPoint" />
          </mxGeometry>
        </mxCell>
        <mxCell id="tFFXGWqwBPgf40RulYj3-17" value="" style="endArrow=classic;html=1;entryX=1;entryY=0.5;entryDx=0;entryDy=0;" edge="1" parent="1" source="tFFXGWqwBPgf40RulYj3-12" target="tFFXGWqwBPgf40RulYj3-3">
          <mxGeometry width="50" height="50" relative="1" as="geometry">
            <mxPoint x="645" y="245" as="sourcePoint" />
            <mxPoint x="415" y="245" as="targetPoint" />
          </mxGeometry>
        </mxCell>
        <mxCell id="tFFXGWqwBPgf40RulYj3-18" value="" style="endArrow=classic;html=1;entryX=1;entryY=0.5;entryDx=0;entryDy=0;exitX=0;exitY=0.5;exitDx=0;exitDy=0;" edge="1" parent="1" source="tFFXGWqwBPgf40RulYj3-13" target="tFFXGWqwBPgf40RulYj3-4">
          <mxGeometry width="50" height="50" relative="1" as="geometry">
            <mxPoint x="645" y="315" as="sourcePoint" />
            <mxPoint x="415" y="315" as="targetPoint" />
          </mxGeometry>
        </mxCell>
        <mxCell id="tFFXGWqwBPgf40RulYj3-19" value="" style="endArrow=classic;html=1;entryX=1;entryY=0.5;entryDx=0;entryDy=0;exitX=0;exitY=0.5;exitDx=0;exitDy=0;" edge="1" parent="1" source="tFFXGWqwBPgf40RulYj3-14" target="tFFXGWqwBPgf40RulYj3-5">
          <mxGeometry width="50" height="50" relative="1" as="geometry">
            <mxPoint x="645" y="385" as="sourcePoint" />
            <mxPoint x="415" y="385" as="targetPoint" />
          </mxGeometry>
        </mxCell>
        <mxCell id="tFFXGWqwBPgf40RulYj3-20" value="" style="group" vertex="1" connectable="0" parent="1">
          <mxGeometry x="860" y="180" width="170" height="350" as="geometry" />
        </mxCell>
        <mxCell id="tFFXGWqwBPgf40RulYj3-21" value="" style="rounded=1;whiteSpace=wrap;html=1;" vertex="1" parent="tFFXGWqwBPgf40RulYj3-20">
          <mxGeometry width="170" height="350" as="geometry" />
        </mxCell>
        <mxCell id="tFFXGWqwBPgf40RulYj3-22" value="&lt;font style=&quot;font-size: 20px&quot;&gt;Slot 1&lt;/font&gt;" style="rounded=0;whiteSpace=wrap;html=1;" vertex="1" parent="tFFXGWqwBPgf40RulYj3-20">
          <mxGeometry x="15" y="30" width="140" height="50" as="geometry" />
        </mxCell>
        <mxCell id="tFFXGWqwBPgf40RulYj3-23" value="&lt;font style=&quot;font-size: 20px&quot;&gt;Slot&amp;nbsp;2&lt;/font&gt;" style="rounded=0;whiteSpace=wrap;html=1;" vertex="1" parent="tFFXGWqwBPgf40RulYj3-20">
          <mxGeometry x="15" y="100" width="140" height="50" as="geometry" />
        </mxCell>
        <mxCell id="tFFXGWqwBPgf40RulYj3-24" value="&lt;font style=&quot;font-size: 20px&quot;&gt;Slot&amp;nbsp;3&lt;/font&gt;" style="rounded=0;whiteSpace=wrap;html=1;" vertex="1" parent="tFFXGWqwBPgf40RulYj3-20">
          <mxGeometry x="15" y="170" width="140" height="50" as="geometry" />
        </mxCell>
        <mxCell id="tFFXGWqwBPgf40RulYj3-25" value="&lt;font style=&quot;font-size: 20px&quot;&gt;Slot&amp;nbsp;N&lt;/font&gt;" style="rounded=0;whiteSpace=wrap;html=1;" vertex="1" parent="tFFXGWqwBPgf40RulYj3-20">
          <mxGeometry x="15" y="280" width="140" height="50" as="geometry" />
        </mxCell>
        <mxCell id="tFFXGWqwBPgf40RulYj3-26" value="&lt;font style=&quot;font-size: 20px&quot;&gt;......&lt;/font&gt;" style="text;html=1;strokeColor=none;fillColor=none;align=center;verticalAlign=middle;whiteSpace=wrap;rounded=0;" vertex="1" parent="tFFXGWqwBPgf40RulYj3-20">
          <mxGeometry x="65" y="240" width="40" height="20" as="geometry" />
        </mxCell>
        <mxCell id="tFFXGWqwBPgf40RulYj3-27" value="" style="endArrow=classic;html=1;entryX=1;entryY=0.5;entryDx=0;entryDy=0;exitX=0;exitY=0.5;exitDx=0;exitDy=0;" edge="1" parent="1" source="tFFXGWqwBPgf40RulYj3-22" target="tFFXGWqwBPgf40RulYj3-11">
          <mxGeometry width="50" height="50" relative="1" as="geometry">
            <mxPoint x="1010" y="130" as="sourcePoint" />
            <mxPoint x="830" y="130" as="targetPoint" />
          </mxGeometry>
        </mxCell>
        <mxCell id="tFFXGWqwBPgf40RulYj3-28" value="" style="endArrow=classic;html=1;entryX=1;entryY=0.5;entryDx=0;entryDy=0;" edge="1" parent="1" source="tFFXGWqwBPgf40RulYj3-23" target="tFFXGWqwBPgf40RulYj3-12">
          <mxGeometry width="50" height="50" relative="1" as="geometry">
            <mxPoint x="885" y="245" as="sourcePoint" />
            <mxPoint x="735" y="245" as="targetPoint" />
          </mxGeometry>
        </mxCell>
        <mxCell id="tFFXGWqwBPgf40RulYj3-29" value="" style="endArrow=classic;html=1;entryX=1;entryY=0.5;entryDx=0;entryDy=0;exitX=0;exitY=0.5;exitDx=0;exitDy=0;" edge="1" parent="1" source="tFFXGWqwBPgf40RulYj3-24" target="tFFXGWqwBPgf40RulYj3-13">
          <mxGeometry width="50" height="50" relative="1" as="geometry">
            <mxPoint x="885" y="315" as="sourcePoint" />
            <mxPoint x="735" y="315" as="targetPoint" />
          </mxGeometry>
        </mxCell>
        <mxCell id="tFFXGWqwBPgf40RulYj3-30" value="" style="endArrow=classic;html=1;entryX=1;entryY=0.5;entryDx=0;entryDy=0;" edge="1" parent="1" source="tFFXGWqwBPgf40RulYj3-25" target="tFFXGWqwBPgf40RulYj3-14">
          <mxGeometry width="50" height="50" relative="1" as="geometry">
            <mxPoint x="885" y="385" as="sourcePoint" />
            <mxPoint x="735" y="385" as="targetPoint" />
          </mxGeometry>
        </mxCell>
        <mxCell id="tFFXGWqwBPgf40RulYj3-34" value="&lt;h1&gt;问题&lt;/h1&gt;&lt;p&gt;1. 一个Jedis客户端表示一个kafka consumer&lt;/p&gt;&lt;p&gt;2. Jedis的断开连接意味着consumer group的rebalance&lt;/p&gt;&lt;p&gt;3. Flink并发度决定了Jedis的连接数&lt;/p&gt;&lt;p&gt;4. 无法在每个Slot中使用Jedis Pool，因为不允许有空闲consumer，否则无法消费对应partition数据&lt;/p&gt;&lt;p&gt;5. 每个Slot中一个Jedis连接，要实现重连机制&lt;/p&gt;" style="text;html=1;strokeColor=#d6b656;fillColor=#fff2cc;spacing=5;spacingTop=-20;whiteSpace=wrap;overflow=hidden;rounded=0;" vertex="1" parent="1">
          <mxGeometry x="1060" y="255" width="320" height="200" as="geometry" />
        </mxCell>
      </root>
    </mxGraphModel>
  </diagram>
</mxfile>
